#!OML:ASF E:\Steps\Project 1\Capture day 1\Session 2\Subject.ASF
:FULLY-SPECIFIED
:DEGREES
127
root -1.22912 17.9663 20.9625 -155.831 -0.698746 178.441
lowerback -28.1293 -2.19583 -6.64064
upperback -1.09552 -1.34069 -0.0146072
thorax 13.828 -1.26419 3.04067
lowerneck -3.47512 -5.8562 0.118706
upperneck 15.8572 -7.67015 2.64172
head 5.44885 -3.26825 0.390146
rclavicle 7.30534e-015 -2.50469e-014
rhumerus -38.8996 -16.5815 -78.9586
rradius 32.3112
rwrist -3.18536
rhand -7.27944 -57.5658
rfingers 7.12502
rthumb 18.602 -86.6964
lclavicle 7.30534e-015 -2.50469e-014
lhumerus -28.6581 1.5763 83.4509
lradius 20.186
lwrist -5.30968
lhand -21.9279 -12.5906
lfingers 7.12502
lthumb 4.47835 17.3421
rfemur -22.6714 6.34081 19.6907
rtibia 7.11596
rfoot -15.7308 -4.42327
rtoes -32.6132
lfemur -22.5198 -5.96254 -23.0315
ltibia 6.8377
lfoot -5.94667 -5.59144
ltoes -33.9119
128
root -1.23014 17.9648 20.9635 -155.799 -0.698704 178.447
lowerback -28.1555 -2.19446 -6.62438
upperback -1.10326 -1.34471 -0.0119594
thorax 13.8316 -1.26576 3.03244
lowerneck -3.45694 -5.95663 0.184017
upperneck 15.9027 -7.79654 2.54608
head 5.45528 -3.33049 0.342882
rclavicle -5.1684e-015 -7.95139e-016
rhumerus -38.8924 -16.5677 -78.9725
rradius 32.3714
rwrist -3.13594
rhand -7.28 -57.717
rfingers 7.12502
rthumb 18.6015 -86.8476
lclavicle -5.1684e-015 -7.95139e-016
lhumerus -28.6455 1.4813 83.5
lradius 20.149
lwrist -5.27972
lhand -22.1194 -12.6326
lfingers 7.12502
lthumb 4.29348 17.3039
rfemur -22.7233 6.29353 19.7076
rtibia 7.15118
rfoot -15.7359 -4.37583
rtoes -32.5828
lfemur -22.5711 -5.89412 -23.051
ltibia 6.85658
lfoot -6.00614 -5.6103
ltoes -34.335
129
root -1.23045 17.9649 20.964 -155.823 -0.692434 178.449
lowerback -28.0778 -2.19465 -6.62275
upperback -1.12267 -1.35327 -0.00480493
thorax 13.7742 -1.26792 3.03815
lowerneck -3.45646 -5.98685 0.176304
upperneck 15.9683 -7.83188 2.53319
head 5.4759 -3.34539 0.337366
rclavicle 1.18774e-014 1.31198e-014
rhumerus -38.8848 -16.5333 -78.9815
rradius 32.4825
rwrist -3.33155
rhand -7.19489 -58.4065
rfingers 7.12502
rthumb 18.6834 -87.5292
lclavicle 1.18774e-014 1.31198e-014
lhumerus -28.7066 1.26827 83.6049
lradius 20.1811
lwrist -5.12195
lhand -22.3786 -12.6387
lfingers 7.12502
lthumb 4.04315 17.3027
rfemur -22.6696 6.15631 19.7451
rtibia 7.08749
rfoot -15.6675 -4.21695
rtoes -32.4666
lfemur -22.5429 -5.8176 -23.0769
ltibia 6.82699
lfoot -5.97212 -5.63781
ltoes -34.7106
130
root -1.22968 17.9664 20.9649 -155.897 -0.658027 178.434
lowerback -27.9686 -2.18461 -6.64516
upperback -1.12832 -1.33669 -0.0245235
thorax 13.7147 -1.25885 3.03815
lowerneck -3.42492 -6.0008 0.166291
upperneck 15.9768 -7.8508 2.5599
head 5.47497 -3.35232 0.347044
rclavicle -1.6201e-014 1.59028e-014
rhumerus -38.87 -16.4357 -79.0558
rradius 32.6334
rwrist -3.66115
rhand -7.00085 -58.975
rfingers 7.12502
rthumb 18.87 -88.0797
lclavicle -1.6201e-014 1.59028e-014
lhumerus -28.7435 1.22645 83.5957
lradius 20.2076
lwrist -5.10041
lhand -22.4281 -12.8656
lfingers 7.12502
lthumb 3.99538 17.0767
rfemur -22.5921 6.06903 19.7555
rtibia 7.07656
rfoot -15.6994 -4.08795
rtoes -32.4633
lfemur -22.4374 -5.83753 -23.0907
ltibia 6.76924
lfoot -5.95314 -5.53675
ltoes -35.0363
131
root -1.22931 17.9669 20.9663 -155.878 -0.645656 178.442
lowerback -27.9673 -2.18736 -6.64116
upperback -1.1533 -1.34563 -0.0336817
thorax 13.6857 -1.2628 3.02249
lowerneck -3.35782 -6.04758 0.170835
upperneck 15.9729 -7.91677 2.60919
head 5.46515 -3.37992 0.359919
rclavicle -1.49089e-016 -1.31198e-014
rhumerus -38.8542 -16.2615 -79.1773
rradius 32.5809
rwrist -3.69725
rhand -7.01537 -58.6059
rfingers 7.12502
rthumb 18.856 -87.7119
lclavicle -1.49089e-016 -1.31198e-014
lhumerus -28.7415 1.3873 83.506
lradius 20.1701
lwrist -5.29851
lhand -22.3164 -12.9264
lfingers 7.12502
lthumb 4.10325 17.0138
rfemur -22.6674 6.17175 19.7449
rtibia 7.16768
rfoot -15.741 -4.22598
rtoes -32.6329
lfemur -22.4583 -5.88492 -23.0583
ltibia 6.77904
lfoot -5.97822 -5.46121
ltoes -34.7764
132
root -1.22937 17.9664 20.966 -155.843 -0.630761 178.452
lowerback -28.015 -2.19516 -6.6418
upperback -1.15614 -1.35499 -0.0284219
thorax 13.7057 -1.2685 3.02362
lowerneck -3.30539 -6.0437 0.111318
upperneck 15.8406 -7.9275 2.7385
head 5.42301 -3.38652 0.411723
rclavicle 6.31141e-015 1.82882e-014
rhumerus -38.8481 -16.2344 -79.2244
rradius 32.5493
rwrist -3.58444
rhand -7.15359 -58.1931
rfingers 7.12502
rthumb 18.7231 -87.312
lclavicle 6.31141e-015 1.82882e-014
lhumerus -28.6977 1.55945 83.451
lradius 20.1123
lwrist -5.50546
lhand -22.1844 -12.852
lfingers 7.12502
lthumb 4.2307 17.0858
rfemur -22.7222 6.26491 19.7308
rtibia 7.19934
rfoot -15.7023 -4.34705
rtoes -32.9513
lfemur -22.4895 -5.81001 -23.0682
ltibia 6.76678
lfoot -5.98004 -5.55318
ltoes -34.4999
133
root -1.22892 17.9662 20.9669 -155.848 -0.625292 178.421
lowerback -28.0008 -2.21406 -6.69175
upperback -1.14448 -1.36251 -0.0294478
thorax 13.7137 -1.27466 3.04709
lowerneck -3.30837 -6.04825 0.0794934
upperneck 15.7561 -7.94304 2.78763
head 5.40081 -3.39773 0.431739
rclavicle 4.67144e-015 -2.78299e-014
rhumerus -38.8808 -16.2653 -79.2494
rradius 32.7403
rwrist -3.63958
rhand -7.27083 -58.2195
rfingers 7.12502
rthumb 18.6103 -87.3492
lclavicle 4.67144e-015 -2.78299e-014
lhumerus -28.6569 1.51936 83.4716
lradius 20.0948
lwrist -5.50009
lhand -22.2006 -12.9774
lfingers 7.12502
lthumb 4.21507 16.9606
rfemur -22.6944 6.23859 19.6975
rtibia 7.13643
rfoot -15.6613 -4.32594
rtoes -33.1704
lfemur -22.4972 -5.6891 -23.142
ltibia 6.7554
lfoot -5.87774 -5.77609
ltoes -34.1205
134
root -1.23026 17.9668 20.9691 -155.819 -0.584872 178.402
lowerback -28.0088 -2.20994 -6.68848
upperback -1.15247 -1.35824 -0.0420046
thorax 13.7072 -1.27269 3.03298
lowerneck -3.28517 -6.06616 0.080679
upperneck 15.7168 -7.96202 2.73482
head 5.38266 -3.4134 0.415329
rclavicle -1.42131e-014 -3.97569e-015
rhumerus -38.8636 -16.1895 -79.324
rradius 32.8467
rwrist -3.78728
rhand -7.36305 -58.0603
rfingers 7.12502
rthumb 18.5216 -87.1985
lclavicle -1.42131e-014 -3.97569e-015
lhumerus -28.6591 1.43026 83.4966
lradius 20.1233
lwrist -5.40091
lhand -22.2351 -12.9676
lfingers 7.12502
lthumb 4.18176 16.9711
rfemur -22.7493 6.07757 19.6882
rtibia 7.13226
rfoot -15.7263 -4.17135
rtoes -33.2736
lfemur -22.5399 -5.74956 -23.1604
ltibia 6.75849
lfoot -5.80224 -5.73783
ltoes -33.899
135
root -1.231 17.9671 20.9722 -155.784 -0.495753 178.415
lowerback -28.0019 -2.19125 -6.67485
upperback -1.18383 -1.34556 -0.0349244
thorax 13.6665 -1.26657 3.03814
lowerneck -3.22724 -6.05652 0.0141432
upperneck 15.7157 -7.93952 2.72975
head 5.37455 -3.40668 0.427567
rclavicle -8.29926e-015 1.74931e-014
rhumerus -38.8391 -16.0692 -79.3717
rradius 32.8422
rwrist -3.89053
rhand -7.43301 -57.8986
rfingers 7.12502
rthumb 18.4543 -87.0432
lclavicle -8.29926e-015 1.74931e-014
lhumerus -28.7082 1.42411 83.5121
lradius 20.1721
lwrist -5.33242
lhand -22.2269 -12.8486
lfingers 7.12502
lthumb 4.18966 17.09
rfemur -22.8556 5.94884 19.7136
rtibia 7.21488
rfoot -15.8007 -3.98508
rtoes -33.388
lfemur -22.5758 -5.76469 -23.1489
ltibia 6.74636
lfoot -5.85458 -5.62201
ltoes -34.2996
136
root -1.23066 17.9672 20.974 -155.802 -0.4491 178.432
lowerback -27.9469 -2.18478 -6.69476
upperback -1.19601 -1.33796 -0.0139663
thorax 13.6271 -1.26356 3.07607
lowerneck -3.17917 -6.07038 -0.0363697
upperneck 15.6712 -7.95788 2.76077
head 5.35618 -3.41875 0.446124
rclavicle -1.34677e-014 3.97569e-016
rhumerus -38.824 -15.9697 -79.392
rradius 32.8346
rwrist -3.94658
rhand -7.50299 -57.8384
rfingers 7.12502
rthumb 18.387 -86.9894
lclavicle -1.34677e-014 3.97569e-016
lhumerus -28.7501 1.44317 83.5238
lradius 20.2126
lwrist -5.30636
lhand -22.1159 -12.857
lfingers 7.12502
lthumb 4.29681 17.0794
rfemur -22.8663 5.94935 19.7365
rtibia 7.26167
rfoot -15.7963 -3.91384
rtoes -33.3883
lfemur -22.5484 -5.7118 -23.1452
ltibia 6.72121
lfoot -5.88715 -5.64386
ltoes -34.2583
